<svg xmlns="http://www.w3.org/2000/svg" xmlns:xlink="http://www.w3.org/1999/xlink" viewBox="0 0 1000 400"><defs><style>.cls-1{isolation:isolate;}.cls-2{fill:#fff;}.cls-3{fill:#e5f6ff;}.cls-4{fill:url(#Áåçûìÿííûé_ãðàäèåíò_17);}.cls-5{fill:url(#Áåçûìÿííûé_ãðàäèåíò_264);}.cls-6{fill:url(#Áåçûìÿííûé_ãðàäèåíò_46);}.cls-7{fill:url(#Áåçûìÿííûé_ãðàäèåíò_36);}.cls-29,.cls-32,.cls-34,.cls-44,.cls-50,.cls-64,.cls-8{opacity:0.3;}.cls-29,.cls-32,.cls-34,.cls-39,.cls-44,.cls-47,.cls-50,.cls-66,.cls-8,.cls-9{mix-blend-mode:multiply;}.cls-8{fill:url(#Áåçûìÿííûé_ãðàäèåíò_153);}.cls-21,.cls-22,.cls-23,.cls-39,.cls-47,.cls-66,.cls-9{opacity:0.5;}.cls-9{fill:url(#Áåçûìÿííûé_ãðàäèåíò_416);}.cls-10{fill:url(#Áåçûìÿííûé_ãðàäèåíò_73);}.cls-11{fill:#dfe3fb;}.cls-12{fill:url(#Áåçûìÿííûé_ãðàäèåíò_132);}.cls-13{fill:url(#Áåçûìÿííûé_ãðàäèåíò_264-2);}.cls-14{fill:url(#Áåçûìÿííûé_ãðàäèåíò_28);}.cls-15{fill:url(#Áåçûìÿííûé_ãðàäèåíò_17-2);}.cls-16{fill:url(#Áåçûìÿííûé_ãðàäèåíò_28-2);}.cls-17{fill:url(#Áåçûìÿííûé_ãðàäèåíò_8);}.cls-18{fill:url(#Áåçûìÿííûé_ãðàäèåíò_65);}.cls-19{fill:url(#Áåçûìÿííûé_ãðàäèåíò_17-3);}.cls-20{fill:url(#Áåçûìÿííûé_ãðàäèåíò_17-4);}.cls-21,.cls-22,.cls-23,.cls-24,.cls-25,.cls-40,.cls-41,.cls-64,.cls-65,.cls-67{mix-blend-mode:screen;}.cls-21{fill:url(#Áåçûìÿííûé_ãðàäèåíò_54);}.cls-22{fill:url(#Áåçûìÿííûé_ãðàäèåíò_54-2);}.cls-23{fill:url(#Áåçûìÿííûé_ãðàäèåíò_54-3);}.cls-24,.cls-25,.cls-40,.cls-41,.cls-65,.cls-67{opacity:0.72;}.cls-24{fill:url(#Áåçûìÿííûé_ãðàäèåíò_94);}.cls-25{fill:url(#Áåçûìÿííûé_ãðàäèåíò_134);}.cls-26{fill:#2f95cd;}.cls-27{fill:url(#Áåçûìÿííûé_ãðàäèåíò_129);}.cls-28{fill:url(#Áåçûìÿííûé_ãðàäèåíò_28-3);}.cls-29{fill:url(#Áåçûìÿííûé_ãðàäèåíò_153-2);}.cls-30{fill:url(#Áåçûìÿííûé_ãðàäèåíò_46-2);}.cls-31{fill:url(#Áåçûìÿííûé_ãðàäèåíò_36-2);}.cls-32{fill:url(#Áåçûìÿííûé_ãðàäèåíò_153-3);}.cls-33{fill:url(#Áåçûìÿííûé_ãðàäèåíò_46-3);}.cls-34{fill:url(#Áåçûìÿííûé_ãðàäèåíò_153-4);}.cls-35{fill:url(#Áåçûìÿííûé_ãðàäèåíò_28-4);}.cls-36{fill:url(#Áåçûìÿííûé_ãðàäèåíò_91);}.cls-37{fill:url(#Áåçûìÿííûé_ãðàäèåíò_36-3);}.cls-38{fill:#6340a2;}.cls-39{fill:url(#Áåçûìÿííûé_ãðàäèåíò_416-2);}.cls-40{fill:url(#Áåçûìÿííûé_ãðàäèåíò_134-2);}.cls-41{fill:url(#Áåçûìÿííûé_ãðàäèåíò_94-2);}.cls-42{fill:url(#Áåçûìÿííûé_ãðàäèåíò_46-4);}.cls-43{fill:url(#Áåçûìÿííûé_ãðàäèåíò_28-5);}.cls-44{fill:url(#Áåçûìÿííûé_ãðàäèåíò_153-5);}.cls-45{fill:url(#Áåçûìÿííûé_ãðàäèåíò_46-5);}.cls-46{fill:url(#Áåçûìÿííûé_ãðàäèåíò_28-6);}.cls-47{fill:url(#Áåçûìÿííûé_ãðàäèåíò_416-3);}.cls-48{fill:url(#Áåçûìÿííûé_ãðàäèåíò_46-6);}.cls-49{fill:url(#Áåçûìÿííûé_ãðàäèåíò_46-7);}.cls-50{fill:url(#Áåçûìÿííûé_ãðàäèåíò_153-6);}.cls-51{fill:url(#Áåçûìÿííûé_ãðàäèåíò_28-7);}.cls-52{fill:url(#Áåçûìÿííûé_ãðàäèåíò_29);}.cls-53{fill:url(#Áåçûìÿííûé_ãðàäèåíò_28-8);}.cls-54{fill:url(#Áåçûìÿííûé_ãðàäèåíò_46-8);}.cls-55{fill:url(#Áåçûìÿííûé_ãðàäèåíò_28-9);}.cls-56{fill:url(#Áåçûìÿííûé_ãðàäèåíò_8-2);}.cls-57{fill:#ff7ae8;}.cls-58{fill:url(#Áåçûìÿííûé_ãðàäèåíò_65-2);}.cls-59{fill:url(#Áåçûìÿííûé_ãðàäèåíò_8-3);}.cls-60{fill:url(#Áåçûìÿííûé_ãðàäèåíò_33);}.cls-61{fill:url(#Áåçûìÿííûé_ãðàäèåíò_8-4);}.cls-62{fill:url(#Áåçûìÿííûé_ãðàäèåíò_8-5);}.cls-63{fill:url(#Áåçûìÿííûé_ãðàäèåíò_8-6);}.cls-64{fill:url(#Áåçûìÿííûé_ãðàäèåíò_27);}.cls-65{fill:url(#Áåçûìÿííûé_ãðàäèåíò_27-2);}.cls-66{fill:#c44fe5;}.cls-67{fill:url(#Áåçûìÿííûé_ãðàäèåíò_27-3);}</style><linearGradient id="Áåçûìÿííûé_ãðàäèåíò_17" x1="356.86" y1="184.28" x2="356.86" y2="158.64" gradientTransform="translate(34.16 -149.76) rotate(10.91)" gradientUnits="userSpaceOnUse"><stop offset="0" stop-color="#45ffcd"/><stop offset="1" stop-color="#22e0ff"/></linearGradient><linearGradient id="Áåçûìÿííûé_ãðàäèåíò_264" x1="364.05" y1="173.49" x2="364.05" y2="151.6" gradientTransform="translate(34.16 -149.76) rotate(10.91)" gradientUnits="userSpaceOnUse"><stop offset="0" stop-color="#b9acf4"/><stop offset="1" stop-color="#e1d1f5"/></linearGradient><linearGradient id="Áåçûìÿííûé_ãðàäèåíò_46" x1="386.01" y1="231.6" x2="396.35" y2="149.23" gradientTransform="translate(34.16 -149.76) rotate(10.91)" gradientUnits="userSpaceOnUse"><stop offset="0" stop-color="#cbc1f7"/><stop offset="1" stop-color="#e8dcf7"/></linearGradient><linearGradient id="Áåçûìÿííûé_ãðàäèåíò_36" x1="360.96" y1="221.37" x2="428.57" y2="221.37" gradientTransform="translate(34.16 -149.76) rotate(10.91)" gradientUnits="userSpaceOnUse"><stop offset="0" stop-color="#8879ea"/><stop offset="1" stop-color="#9e8cef"/></linearGradient><linearGradient id="Áåçûìÿííûé_ãðàäèåíò_153" x1="390.43" y1="229.77" x2="390.43" y2="175.99" gradientTransform="translate(34.16 -149.76) rotate(10.91)" gradientUnits="userSpaceOnUse"><stop offset="0" stop-color="#9d68c2"/><stop offset="1" stop-color="#ccedff"/></linearGradient><linearGradient id="Áåçûìÿííûé_ãðàäèåíò_416" x1="394.77" y1="228.62" x2="394.77" y2="212.98" gradientTransform="translate(34.16 -149.76) rotate(10.91)" gradientUnits="userSpaceOnUse"><stop offset="0" stop-color="#8da4e5"/><stop offset="1" stop-color="#755cbb"/></linearGradient><linearGradient id="Áåçûìÿííûé_ãðàäèåíò_73" x1="389.05" y1="217.57" x2="390.33" y2="207.38" gradientTransform="translate(3.67 -95.13) rotate(3.28)" gradientUnits="userSpaceOnUse"><stop offset="0" stop-color="#5e36cc"/><stop offset="1" stop-color="#6c4a96"/></linearGradient><linearGradient id="Áåçûìÿííûé_ãðàäèåíò_132" x1="377.98" y1="213.91" x2="377.98" y2="151.55" gradientTransform="translate(34.16 -149.76) rotate(10.91)" gradientUnits="userSpaceOnUse"><stop offset="0" stop-color="#0665bd"/><stop offset="1" stop-color="#1a1f77"/></linearGradient><linearGradient id="Áåçûìÿííûé_ãðàäèåíò_264-2" x1="412.41" y1="101.83" x2="412.41" y2="59.62" gradientTransform="translate(1.64 12.14) rotate(-0.29)" xlink:href="#Áåçûìÿííûé_ãðàäèåíò_264"/><linearGradient id="Áåçûìÿííûé_ãðàäèåíò_28" x1="415.64" y1="100.23" x2="415.64" y2="59.81" gradientTransform="translate(1.64 12.14) rotate(-0.29)" gradientUnits="userSpaceOnUse"><stop offset="0" stop-color="#be9dea"/><stop offset="1" stop-color="#9e8cef"/></linearGradient><linearGradient id="Áåçûìÿííûé_ãðàäèåíò_17-2" x1="418.69" y1="101.23" x2="418.69" y2="61.62" gradientTransform="translate(1.64 12.14) rotate(-0.29)" xlink:href="#Áåçûìÿííûé_ãðàäèåíò_17"/><linearGradient id="Áåçûìÿííûé_ãðàäèåíò_28-2" x1="333.41" y1="226.33" x2="336.31" y2="203.26" gradientTransform="translate(34.16 -149.76) rotate(10.91)" xlink:href="#Áåçûìÿííûé_ãðàäèåíò_28"/><linearGradient id="Áåçûìÿííûé_ãðàäèåíò_8" x1="340.84" y1="172.97" x2="340.84" y2="162.44" gradientTransform="translate(46.49 -125.38) rotate(16.36)" gradientUnits="userSpaceOnUse"><stop offset="0" stop-color="#dd1a8f"/><stop offset="1" stop-color="#fe117e"/></linearGradient><linearGradient id="Áåçûìÿííûé_ãðàäèåíò_65" x1="334.83" y1="216.86" x2="334.83" y2="212.05" gradientTransform="matrix(1, 0.05, -0.05, 1, 3.03, -102.79)" gradientUnits="userSpaceOnUse"><stop offset="0" stop-color="#d93de3"/><stop offset="1" stop-color="#ff6dba"/></linearGradient><linearGradient id="Áåçûìÿííûé_ãðàäèåíò_17-3" x1="391.58" y1="181.7" x2="391.58" y2="175.98" xlink:href="#Áåçûìÿííûé_ãðàäèåíò_17"/><linearGradient id="Áåçûìÿííûé_ãðàäèåíò_17-4" x1="355.19" y1="188.32" x2="355.19" y2="183.01" xlink:href="#Áåçûìÿííûé_ãðàäèåíò_17"/><linearGradient id="Áåçûìÿííûé_ãðàäèåíò_54" x1="352.52" y1="165.41" x2="406.11" y2="165.41" gradientTransform="translate(34.16 -149.76) rotate(10.91)" gradientUnits="userSpaceOnUse"><stop offset="0"/><stop offset="1" stop-color="#6a9bff"/></linearGradient><linearGradient id="Áåçûìÿííûé_ãðàäèåíò_54-2" x1="355.83" y1="208.69" x2="395.1" y2="208.69" xlink:href="#Áåçûìÿííûé_ãðàäèåíò_54"/><linearGradient id="Áåçûìÿííûé_ãðàäèåíò_54-3" x1="346.97" y1="208.69" x2="346.97" y2="183.1" xlink:href="#Áåçûìÿííûé_ãðàäèåíò_54"/><linearGradient id="Áåçûìÿííûé_ãðàäèåíò_94" x1="417.93" y1="99.94" x2="417.93" y2="88.37" gradientTransform="translate(1.64 12.14) rotate(-0.29)" gradientUnits="userSpaceOnUse"><stop offset="0" stop-color="#d4e2ff"/><stop offset="1"/></linearGradient><linearGradient id="Áåçûìÿííûé_ãðàäèåíò_134" x1="408.32" y1="68.86" x2="430.98" y2="68.86" gradientTransform="translate(1.64 12.14) rotate(-0.29)" gradientUnits="userSpaceOnUse"><stop offset="0"/><stop offset="1" stop-color="#d4e2ff"/></linearGradient><linearGradient id="Áåçûìÿííûé_ãðàäèåíò_129" x1="338.96" y1="191.15" x2="344.45" y2="147.41" gradientUnits="userSpaceOnUse"><stop offset="0" stop-color="#cbc1f7"/><stop offset="1" stop-color="#d4bef1"/></linearGradient><linearGradient id="Áåçûìÿííûé_ãðàäèåíò_28-3" x1="327.63" y1="189.47" x2="326.39" y2="177.28" gradientTransform="matrix(1, 0, 0, 1, 0, 0)" xlink:href="#Áåçûìÿííûé_ãðàäèåíò_28"/><linearGradient id="Áåçûìÿííûé_ãðàäèåíò_153-2" x1="342.02" y1="189.6" x2="342.02" y2="149.36" gradientTransform="matrix(1, 0, 0, 1, 0, 0)" xlink:href="#Áåçûìÿííûé_ãðàäèåíò_153"/><linearGradient id="Áåçûìÿííûé_ãðàäèåíò_46-2" x1="365.86" y1="176.79" x2="370.37" y2="140.9" gradientTransform="translate(-23.14 121.91) rotate(-8.66)" xlink:href="#Áåçûìÿííûé_ãðàäèåíò_46"/><linearGradient id="Áåçûìÿííûé_ãðàäèåíò_36-2" x1="359.09" y1="147.67" x2="380.5" y2="147.67" gradientTransform="translate(-23.14 121.91) rotate(-8.66)" xlink:href="#Áåçûìÿííûé_ãðàäèåíò_36"/><linearGradient id="Áåçûìÿííûé_ãðàäèåíò_153-3" x1="369.49" y1="175.71" x2="369.49" y2="139.6" gradientTransform="translate(-23.14 121.91) rotate(-8.66)" xlink:href="#Áåçûìÿííûé_ãðàäèåíò_153"/><linearGradient id="Áåçûìÿííûé_ãðàäèåíò_46-3" x1="389.28" y1="99.72" x2="399.07" y2="21.75" gradientTransform="translate(-18.29 235.58) rotate(-16.58)" xlink:href="#Áåçûìÿííûé_ãðàäèåíò_46"/><linearGradient id="Áåçûìÿííûé_ãðàäèåíò_153-4" x1="412.51" y1="87.08" x2="412.51" y2="46.73" gradientTransform="translate(-18.29 235.58) rotate(-16.58)" xlink:href="#Áåçûìÿííûé_ãðàäèåíò_153"/><linearGradient id="Áåçûìÿííûé_ãðàäèåíò_28-4" x1="366.84" y1="74.91" x2="405.08" y2="74.91" gradientTransform="translate(-18.29 235.58) rotate(-16.58)" xlink:href="#Áåçûìÿííûé_ãðàäèåíò_28"/><radialGradient id="Áåçûìÿííûé_ãðàäèåíò_91" cx="386.73" cy="92.37" r="28.9" gradientTransform="translate(-18.29 235.58) rotate(-16.58)" xlink:href="#Áåçûìÿííûé_ãðàäèåíò_17"/><linearGradient id="Áåçûìÿííûé_ãðàäèåíò_36-3" x1="408.17" y1="46.6" x2="418.02" y2="46.6" gradientTransform="translate(-18.29 235.58) rotate(-16.58)" xlink:href="#Áåçûìÿííûé_ãðàäèåíò_36"/><linearGradient id="Áåçûìÿííûé_ãðàäèåíò_416-2" x1="395.52" y1="34.03" x2="395.52" y2="21.65" gradientTransform="translate(-18.29 235.58) rotate(-16.58)" xlink:href="#Áåçûìÿííûé_ãðàäèåíò_416"/><linearGradient id="Áåçûìÿííûé_ãðàäèåíò_134-2" x1="368.83" y1="61.47" x2="400.56" y2="61.47" gradientTransform="translate(-18.29 235.58) rotate(-16.58)" xlink:href="#Áåçûìÿííûé_ãðàäèåíò_134"/><linearGradient id="Áåçûìÿííûé_ãðàäèåíò_94-2" x1="386.27" y1="98.14" x2="386.27" y2="94.48" gradientTransform="translate(-18.29 235.58) rotate(-16.58)" xlink:href="#Áåçûìÿííûé_ãðàäèåíò_94"/><linearGradient id="Áåçûìÿííûé_ãðàäèåíò_46-4" x1="478.43" y1="-9.81" x2="485.82" y2="-68.64" gradientTransform="matrix(0.86, -0.51, 0.51, 0.86, 20.42, 454.05)" xlink:href="#Áåçûìÿííûé_ãðàäèåíò_46"/><linearGradient id="Áåçûìÿííûé_ãðàäèåíò_28-5" x1="490.59" y1="-9.45" x2="490.59" y2="-20.77" gradientTransform="matrix(0.86, -0.51, 0.51, 0.86, 20.42, 454.05)" xlink:href="#Áåçûìÿííûé_ãðàäèåíò_28"/><linearGradient id="Áåçûìÿííûé_ãðàäèåíò_153-5" x1="483.62" y1="-8.48" x2="483.62" y2="-70.7" gradientTransform="matrix(0.86, -0.51, 0.51, 0.86, 20.42, 454.05)" xlink:href="#Áåçûìÿííûé_ãðàäèåíò_153"/><linearGradient id="Áåçûìÿííûé_ãðàäèåíò_46-5" x1="508.2" y1="16.4" x2="512.27" y2="-15.94" gradientTransform="matrix(-0.8, 0.6, 0.6, 0.8, 853.8, -104.25)" xlink:href="#Áåçûìÿííûé_ãðàäèåíò_46"/><linearGradient id="Áåçûìÿííûé_ãðàäèåíò_28-6" x1="515.34" y1="16.85" x2="515.34" y2="-12.44" gradientTransform="matrix(-0.8, 0.6, 0.6, 0.8, 853.8, -104.25)" xlink:href="#Áåçûìÿííûé_ãðàäèåíò_28"/><linearGradient id="Áåçûìÿííûé_ãðàäèåíò_416-3" x1="515.94" y1="7.79" x2="515.94" y2="-3.54" gradientTransform="matrix(-0.8, 0.6, 0.6, 0.8, 853.8, -104.25)" xlink:href="#Áåçûìÿííûé_ãðàäèåíò_416"/><linearGradient id="Áåçûìÿííûé_ãðàäèåíò_46-6" x1="516.7" y1="7.25" x2="519.1" y2="-11.88" gradientTransform="matrix(-0.8, 0.6, 0.6, 0.8, 853.8, -104.25)" xlink:href="#Áåçûìÿííûé_ãðàäèåíò_46"/><linearGradient id="Áåçûìÿííûé_ãðàäèåíò_46-7" x1="426.32" y1="100.94" x2="432.11" y2="54.85" gradientTransform="translate(-26.92 284.06) rotate(-19.16)" xlink:href="#Áåçûìÿííûé_ãðàäèåíò_46"/><linearGradient id="Áåçûìÿííûé_ãðàäèåíò_153-6" x1="434.28" y1="102.27" x2="434.28" y2="55.66" gradientTransform="translate(-26.92 284.06) rotate(-19.16)" xlink:href="#Áåçûìÿííûé_ãðàäèåíò_153"/><linearGradient id="Áåçûìÿííûé_ãðàäèåíò_28-7" x1="317.71" y1="194.8" x2="308.48" y2="182.34" gradientTransform="matrix(1, 0, 0, 1, 0, 0)" xlink:href="#Áåçûìÿííûé_ãðàäèåíò_28"/><linearGradient id="Áåçûìÿííûé_ãðàäèåíò_29" x1="312.22" y1="195.13" x2="314.55" y2="176.59" gradientUnits="userSpaceOnUse"><stop offset="0" stop-color="#e8dcf7"/><stop offset="1" stop-color="#cbc1f7"/></linearGradient><linearGradient id="Áåçûìÿííûé_ãðàäèåíò_28-8" x1="316.64" y1="182.67" x2="313.77" y2="178.8" gradientTransform="matrix(1, 0, 0, 1, 0, 0)" xlink:href="#Áåçûìÿííûé_ãðàäèåíò_28"/><linearGradient id="Áåçûìÿííûé_ãðàäèåíò_46-8" x1="311.38" y1="182.72" x2="312.19" y2="176.26" gradientTransform="matrix(1, 0, 0, 1, 0, 0)" xlink:href="#Áåçûìÿííûé_ãðàäèåíò_46"/><linearGradient id="Áåçûìÿííûé_ãðàäèåíò_28-9" x1="310.58" y1="180.59" x2="323.13" y2="189.81" gradientTransform="matrix(1, 0, 0, 1, 0, 0)" xlink:href="#Áåçûìÿííûé_ãðàäèåíò_28"/><linearGradient id="Áåçûìÿííûé_ãðàäèåíò_8-2" x1="303.2" y1="182.67" x2="303.2" y2="129.81" gradientTransform="matrix(1, 0, 0, 1, 0, 0)" xlink:href="#Áåçûìÿííûé_ãðàäèåíò_8"/><linearGradient id="Áåçûìÿííûé_ãðàäèåíò_65-2" x1="289.88" y1="181.38" x2="299.94" y2="130.8" gradientTransform="matrix(1, 0, 0, 1, 0, 0)" xlink:href="#Áåçûìÿííûé_ãðàäèåíò_65"/><linearGradient id="Áåçûìÿííûé_ãðàäèåíò_8-3" x1="291.05" y1="175.99" x2="298.97" y2="136.18" gradientTransform="matrix(1, 0, 0, 1, 0, 0)" xlink:href="#Áåçûìÿííûé_ãðàäèåíò_8"/><linearGradient id="Áåçûìÿííûé_ãðàäèåíò_33" x1="291.71" y1="176.13" x2="299.55" y2="136.74" gradientUnits="userSpaceOnUse"><stop offset="0" stop-color="#d93de3"/><stop offset="1" stop-color="#e652ad"/></linearGradient><linearGradient id="Áåçûìÿííûé_ãðàäèåíò_8-4" x1="291.65" y1="155.35" x2="301.34" y2="155.35" gradientTransform="matrix(1, 0, 0, 1, 0, 0)" xlink:href="#Áåçûìÿííûé_ãðàäèåíò_8"/><linearGradient id="Áåçûìÿííûé_ãðàäèåíò_8-5" x1="294.07" y1="143.02" x2="296.5" y2="143.02" gradientTransform="matrix(1, 0, 0, 1, 0, 0)" xlink:href="#Áåçûìÿííûé_ãðàäèåíò_8"/><linearGradient id="Áåçûìÿííûé_ãðàäèåíò_8-6" x1="294.07" y1="167.35" x2="296.5" y2="167.35" gradientTransform="matrix(1, 0, 0, 1, 0, 0)" xlink:href="#Áåçûìÿííûé_ãðàäèåíò_8"/><linearGradient id="Áåçûìÿííûé_ãðàäèåíò_27" x1="281.96" y1="153.57" x2="308.65" y2="153.57" gradientUnits="userSpaceOnUse"><stop offset="0"/><stop offset="1" stop-color="#ff955c"/></linearGradient><linearGradient id="Áåçûìÿííûé_ãðàäèåíò_27-2" x1="306.36" y1="145.78" x2="313.47" y2="145.78" xlink:href="#Áåçûìÿííûé_ãðàäèåíò_27"/><linearGradient id="Áåçûìÿííûé_ãðàäèåíò_27-3" x1="295.34" y1="131.66" x2="306.68" y2="131.66" xlink:href="#Áåçûìÿííûé_ãðàäèåíò_27"/></defs><g class="cls-1"><g id="Layer_2" data-name="Layer 2"><g id="chatbot"><rect class="cls-2" width="1000" height="400"/><path class="cls-3" d="M332.1,224.45c8.34,13.77,78.11,10.05,104.22-2.74s28.74-122.52,16.31-138.9S361.36,61.2,329,79,321,206.13,332.1,224.45Z"/><path class="cls-3" d="M453.31,75.6c.07-6.73,15.18-14.42,23.9-12.15s10.06,32.3-3.2,33.29S453.22,84,453.31,75.6Z"/><path class="cls-3" d="M315.74,217.56c-1.16-5,2.73-10.4,6.29-9.47s7.6,17.71,2.17,18.12S316.51,220.9,315.74,217.56Z"/><path class="cls-4" d="M354.79,73.61s-8.2,5.88-11.52,19,15.78-3.09,15.78-3.09Z"/><path class="cls-5" d="M347.57,87.34s6.25-15.79,12-18.28,14.31,2.41,14.31,2.41Z"/><path class="cls-6" d="M418.68,140.78c-15.05,15.92-72.77,7.78-80.84-3.18a27,27,0,0,1-5-15.21v0c-.85-24,23.59-54.7,53.86-52.33,20.51,1.62,34.09,21.45,37.67,40.52C426.64,122.48,425,134.1,418.68,140.78Z"/><path class="cls-7" d="M405.79,147.34a107.46,107.46,0,0,1-26.17,2.18c-13.61-.79-23.34-2.88-28.69-5.39h0c-3.53-1.66-5.17-3.48-4.81-5.23.21-1.07,2.94-1.86,7.19-2.39,12.49-1.53,38.12-.74,51.78,2.14,1.18.25,2.27.51,3.25.79l.61.19.11,0c2.35.72,4,1.53,4.69,2.45a1.74,1.74,0,0,1,.36.7C414.51,144.62,411,146.17,405.79,147.34Z"/><path class="cls-8" d="M418.68,140.78c-15.05,15.92-72.77,7.78-80.84-3.18a27,27,0,0,1-5-15.21v0s3.44,7.81,15.13,9.92,46.12,2.36,53.39-2.4,5.94-28.49,5.94-28.49l17.07,9.16C426.64,122.48,425,134.1,418.68,140.78Z"/><path class="cls-9" d="M405.79,147.34c-5.72-2.89-22.48-10.49-36.39-8.19-17.07,2.81-18.47,5-18.47,5h0c-3.53-1.66-5.17-3.48-4.81-5.23.21-1.07,2.94-1.86,7.19-2.39,12.49-1.53,38.12-.74,51.78,2.14,1.43.34,2.72.67,3.86,1l.11,0c2.35.72,4,1.53,4.69,2.45a1.74,1.74,0,0,1,.36.7C414.51,144.62,411,146.17,405.79,147.34Z"/><path class="cls-10" d="M408.33,139.44c-3.39,2.9-19,4.67-27.77,4.15-15.77-.93-25.21-4-27.26-7.08C366.86,134.85,395.93,135.92,408.33,139.44Z"/><path class="cls-11" d="M332.64,123.46c2.05,7.33,51.9,12.83,65.42,1S402,70.09,375.3,72.37C349.87,74.54,328.93,110.18,332.64,123.46Z"/><path class="cls-12" d="M332.85,122.37c2,7.33,51.9,12.83,65.42,1S402.18,69,375.51,71.28C350.08,73.45,329.14,109.09,332.85,122.37Z"/><path class="cls-13" d="M402.34,78.56s-2.58,24.65,12.66,33.29c0,0,7.47.76,11.78-3.79,0,0-6.72,6.39-13.88-.19s-5.53-24.81-.15-30.77S426,72.66,426,72.66l-3.14-2.8S411.29,67.58,402.34,78.56Z"/><path class="cls-14" d="M422.81,69.86s-8.46-.73-14.32,9.11c-6.23,10.46-1.58,28.45,6.06,31.15s15.2-26.49,15.2-26.49l-4.49-11.58A5.28,5.28,0,0,0,422.81,69.86Z"/><path class="cls-15" d="M433.86,94.65c-1.05,5.63-3.32,10.25-6.38,13.17l0,0-.85.76h0a11.14,11.14,0,0,1-8.58,2.6c-10.3-1.26-11.76-16.17-10.59-24.62,1.36-9.77,9.68-15.67,16.33-14.85C431.67,72.71,435.94,83.62,433.86,94.65Z"/><path class="cls-16" d="M332.57,115.66a37.72,37.72,0,0,0-14,7.21c-6.8,5.58-8.59,12.4-.2,11.79l3.89-2.29s-5,.71-4.35-4.4,14.48-11.37,14.48-11.37Z"/><path class="cls-17" d="M316.89,130.48c-2.52,2.56,2.39,4.88,6.51,5.56,4.63.76,13,.25,12.71-4.46S322.8,124.48,316.89,130.48Z"/><path class="cls-18" d="M317.18,131c-.19.76,16.41,1.84,17-1.07S318.59,125.12,317.18,131Z"/><path class="cls-19" d="M375.74,101.1c-.36.49,6.55-4,17.55.3C394.37,101.83,382.8,91.43,375.74,101.1Z"/><path class="cls-20" d="M341.06,101.14c-.36.49,3.27-3,12.93-.67C355.12,100.75,347.41,92.53,341.06,101.14Z"/><path class="cls-21" d="M346.72,91.76c1.13,1.72,10.58-3.19,21-2.14s21.77,11.25,30.29,10c6.76-1-2.16-25.32-19.37-27.49S345.59,90.06,346.72,91.76Z"/><path class="cls-22" d="M343.64,124.57a73,73,0,0,1,24.19-1.38c13.36,1.5,15.51,2.91,15.27,4.17s-10,3.84-22.23,2.53S343.64,124.57,343.64,124.57Z"/><path class="cls-23" d="M333.22,120.42s-1.37-9.41,7.13-22.74c0,0,1.83-2.09,2.66-1.34S335.35,106.76,333.22,120.42Z"/><path class="cls-24" d="M409.16,98.47s1.14,9.14,7.87,11.09,12.17-2.94,13.85-9.82c0,0-2.08,5.93-10.83,4.46S409.16,98.47,409.16,98.47Z"/><path class="cls-25" d="M410.32,81.19c.08,1.7,12.4-1.9,16.32-1.4s5.62,5.3,6.24,5.19-1.1-11.36-8.39-12.16S410.26,80,410.32,81.19Z"/><path class="cls-26" d="M352.4,110.57s12.25.43,19.2-1.32c0,0-1.64,11.48-9.6,11.48S352.4,110.57,352.4,110.57Z"/><path class="cls-27" d="M351.92,178.38s-20.57,11.68-25.41,11.21-2.69-11.47-2.69-11.47c.65-.76,1.37-1.54,2.13-2.35h0c7.73-8.16,20.93-18.56,28.51-23.52h0c3.19-2.09,5.39-3.21,5.77-2.79C363.06,152.57,351.92,178.38,351.92,178.38Z"/><path class="cls-28" d="M323.83,178.12s2.68-2.26,6,.78-.11,10.32-3.34,10.69S321.35,182.84,323.83,178.12Z"/><path class="cls-29" d="M351.92,178.38s-20.57,11.68-25.41,11.21-2.69-11.47-2.69-11.47c.65-.76,1.37-1.54,2.13-2.35h0s5,3,14.29,1.55,14.22-25.07,14.22-25.07h0c3.19-2.09,5.39-3.21,5.77-2.79C363.06,152.57,351.92,178.38,351.92,178.38Z"/><path class="cls-30" d="M375.93,216.44c.31,4.37-4.43,19.25-9.22,23.82v0a4,4,0,0,1-2.74,1.33c-4-.15-8.64-18.34-10.41-28.71-.67-4-.91-6.84-.52-7C356.41,204.42,375.56,211.24,375.93,216.44Z"/><path class="cls-31" d="M376.15,217.85s-4.35,3.3-12.31.72c-6.22-2-11.52-10.86-10.79-12.68S377.8,210.74,376.15,217.85Z"/><path class="cls-32" d="M375.93,216.44c.31,4.37-4.43,19.25-9.22,23.82,3.32-5.24,2-14.7-1.2-18.63-2.43-3-8.93-7-11.95-8.73-.67-4-.91-6.84-.52-7C356.41,204.42,375.56,211.24,375.93,216.44Z"/><path class="cls-2" d="M360.81,223c-1.22-.09-.4,3.21-.17,3.39s.79-.93.85-1.84S361.24,223.06,360.81,223Z"/><path class="cls-33" d="M404.47,189.88c1.2,16.38-5.63,25.6-21.47,30.08-15.52,4.39-30-9.53-30.87-30.68-.55-13.5-.17-25.74,4.34-34.63h0v0a23.85,23.85,0,0,1,12.23-11.47c4.56-2,9.25-.59,13.66,2.8C393.87,154.78,403.53,177.26,404.47,189.88Z"/><path class="cls-34" d="M387.58,163.48a193.63,193.63,0,0,1,7.6,19.5c2.82,9.48.16,20.28.16,20.28l9.25-10.61a35.09,35.09,0,0,0-2.08-13c-2.45-6.18-3.83-8.92-3.83-8.92Z"/><path class="cls-35" d="M351.93,192s.13-12.69,11.24-16c13.31-4,26.66,8.08,28.83,18.3s1.91,20.47-10.55,24.61C381.45,218.88,357.75,225.37,351.93,192Z"/><path class="cls-36" d="M352.48,193.35s.13-12.69,11.24-16c13.31-4,26.66,8.08,28.84,18.3s1.9,20.48-10.56,24.61C382,220.26,358.3,226.75,352.48,193.35Z"/><path class="cls-37" d="M397.55,174.42a2.78,2.78,0,0,1-2.21-.77c-3.89-2.88-10-12.73-11.76-18.7-.67-2.31-.69-4,.35-4.56,1.68-.83,7.08,4.09,11.34,12C397.74,167,400,173.69,397.55,174.42Z"/><path class="cls-38" d="M395.34,173.65c-3.89-2.88-10-12.73-11.76-18.7,2.42,1.74,5.83,5.73,8.74,11.11A33.92,33.92,0,0,1,395.34,173.65Z"/><path class="cls-39" d="M382.21,145.86s-14.45,11-20.91,12.13c-6.26,1.12-5.06-3.19-5-3.43h0v0a23.83,23.83,0,0,1,12.22-11.47C373.11,141.09,377.79,142.47,382.21,145.86Z"/><path class="cls-40" d="M353.58,191.86c2.63,2.69,7.65-3.26,15.71-4.68s13.48,1.46,15.39-.34-8.62-11.35-20.73-8.25C354.27,181.06,352.68,190.94,353.58,191.86Z"/><path class="cls-41" d="M370.93,218.26a14.3,14.3,0,0,0,9.72.92c5.47-1.42,6.49-4.58,6.49-4.58a11.81,11.81,0,0,0-6.31,1.55A17.61,17.61,0,0,1,370.93,218.26Z"/><path class="cls-2" d="M374.58,158.49c-.93.31.15,10,1,10.08s1.3-2.18,1.15-5.42S375.49,158.19,374.58,158.49Z"/><path class="cls-42" d="M440.92,187.31c1.47,6.15-4.3,10.31-6.82,10.11-2.2-.17-9.48-2.65-19.05-9.43h0q-2.11-1.48-4.36-3.27c-11.71-9.28-28.28-29.33-23-31.28,0,0,0,0,0,0C402.85,147.77,439.44,181.16,440.92,187.31Z"/><path class="cls-43" d="M429.19,196s-2.77-4.83.46-9,10.66-1,10.66-1a6.33,6.33,0,0,1-2.44,8.85C432.19,198.31,429.19,196,429.19,196Z"/><path class="cls-44" d="M440.92,187.31c1.47,6.15-4.3,10.31-6.82,10.11-2.2-.17-9.48-2.65-19.05-9.43.86.54,7.2,4.36,9.89,2.76,2.9-1.73,3.7-13.1-12-26.62-15.19-13.11-24.73-10.86-25.31-10.71C402.85,147.77,439.44,181.16,440.92,187.31Z"/><path class="cls-45" d="M431.91,188.92c2-2.08,6.94-2.4,9.41-1.24s10.62,7.37,15,19c0,0-.76,6.87-5.4,8.22-3.53,1-9.67-7.63-14.34-13.61S428.59,192.34,431.91,188.92Z"/><path class="cls-46" d="M451.69,214.88s-11.11-22-21.75-20.34c0,0,2,3.46,8.45,10.39S449.42,215.57,451.69,214.88Z"/><path class="cls-47" d="M444.2,203.63s.17,4.35-.83,5.82a4.21,4.21,0,0,1-2.43,1.75l-1.59-12.56A28,28,0,0,1,444.2,203.63Z"/><path class="cls-48" d="M439.35,198.64s-5.11-4.61-9.36-3.5c0,0-.81,5.24,8.59,16.32,0,0,3.35,1,4.09-3A36.33,36.33,0,0,0,439.35,198.64Z"/><path class="cls-2" d="M436.07,198.11c1.11-.82,3.06,5.35,2.4,5.66S435.14,198.8,436.07,198.11Z"/><path class="cls-2" d="M401.69,171.19c-1.35,2.46,3,4.3,4.09,3.91S402.61,169.52,401.69,171.19Z"/><path class="cls-2" d="M406.68,176c-.41.31,1.34,1.86,1.76,2.12.81.49,2.44.72,2.51.41S407.15,175.67,406.68,176Z"/><path class="cls-2" d="M333.31,170.37c.21.71,5.06-1.48,5.07-3.57S333,169.36,333.31,170.37Z"/><path class="cls-49" d="M420.33,236.73c-.85.85-2.47.83-4.51.2A37.27,37.27,0,0,1,408,233h0l0,0c-8-4.93-16.71-12.56-17.17-14.79-1.61-7.72,6.19-17.61,11.16-22.51,1.95-1.91,3.46-3.06,3.81-3C407,192.83,424.75,232.3,420.33,236.73Z"/><path class="cls-50" d="M420.33,236.73c-.85.85-2.47.83-4.51.2L408,233c.74.32,9.16,3.68,6.31-8.46-3-12.71-12.65-27.89-12.65-27.89l.28-1c1.95-1.91,3.46-3.06,3.81-3C407,192.83,424.75,232.3,420.33,236.73Z"/><path class="cls-2" d="M397,215.64c-1.87,1.15,2.78,5.09,3.31,5.11s.18-2.19-.69-3.56C398.79,216,397.61,215.23,397,215.64Z"/><path class="cls-2" d="M400.94,221.18c-.28.44,1.17,1.66,1.38,1.22a1.36,1.36,0,0,0-.44-1.4A.83.83,0,0,0,400.94,221.18Z"/><path class="cls-2" d="M309.32,180.07c.06.83,5.93-1.89,5.93-2.88S309.23,178.66,309.32,180.07Z"/><path class="cls-51" d="M297.72,190.31a10,10,0,0,0,1.11,3.8s2.85,1.95,8.44,1.73,17.06-6.07,18.66-7.14,2.44-4.33,2.44-4.33Z"/><path class="cls-52" d="M327.92,178.41c-2.83-1.13-10.1.42-14.55,2.06s-11.72,6.66-15.65,9.84c0,0,.08,3,5.9,3.74s21.47-5.87,24.08-8.74S327.92,178.41,327.92,178.41Z"/><path class="cls-53" d="M307.76,183.31s9.88-1.33,14.92-5.11C322.68,178.2,314.18,177.84,307.76,183.31Z"/><path class="cls-54" d="M321.19,178.41A29.87,29.87,0,0,1,309.28,182s-6.2.08-6.55-.64-.54-3.45,1.06-4.14S316.11,175.34,321.19,178.41Z"/><path class="cls-55" d="M308.69,183.16a43.73,43.73,0,0,1,15.39,4.6l.94-.52S319.24,183.17,308.69,183.16Z"/><path class="cls-56" d="M295.34,129.93a16,16,0,0,1,9.05,1.55s10.07,6,9.2,25.48c-.89,19.71-9.53,24-9.53,24s-6.61,2.79-10.05,1.33S295.34,129.93,295.34,129.93Z"/><ellipse class="cls-57" cx="295.34" cy="156.09" rx="13.55" ry="26.16"/><ellipse class="cls-58" cx="294.91" cy="156.09" rx="13.11" ry="26.16"/><path class="cls-59" d="M305.5,156.09c0,11.37-4.69,20.59-10.49,20.59a5.6,5.6,0,0,1-2.29-.5c-4.69-2.05-8.2-10.27-8.2-20.09,0-11.37,4.7-20.59,10.49-20.59a6,6,0,0,1,3.51,1.18C302.59,139.51,305.5,147.13,305.5,156.09Z"/><path class="cls-60" d="M305.5,156.09c0,11.37-4.69,20.59-10.49,20.59a5.6,5.6,0,0,1-2.29-.5c-4.06-2.84-7-10.45-7-19.4,0-11.37,4.7-20.59,10.5-20.59a5.46,5.46,0,0,1,2.27.49C302.59,139.51,305.5,147.13,305.5,156.09Z"/><path class="cls-61" d="M301.34,150.3a9.34,9.34,0,0,1-.21,1.93,8.08,8.08,0,0,1-.63,1.91,7.18,7.18,0,0,1-1.09,1.69,5.36,5.36,0,0,1-1.58,1.25,4.07,4.07,0,0,1,1.41,1,4.65,4.65,0,0,1,.79,1.21,4.49,4.49,0,0,1,.34,1.19,7.47,7.47,0,0,1,.08.91,5.11,5.11,0,0,1-.34,2,4.45,4.45,0,0,1-.87,1.38,4.29,4.29,0,0,1-1.18.91,7.57,7.57,0,0,1-1.29.52,7.39,7.39,0,0,1-1.2.23c-.37,0-.67.05-.89.05a8.54,8.54,0,0,1-.86-.07,6.91,6.91,0,0,1-.8-.18,2.29,2.29,0,0,1-.78-.34c.06-1.9.09-3.81.09-5.7q0-3.87-.17-7.66t-.51-7.62a11.51,11.51,0,0,1,1.38-.33c.46-.08.87-.14,1.24-.18s.85-.06,1.24-.07a5.64,5.64,0,0,1,1.08.11,6,6,0,0,1,1.25.39,7.43,7.43,0,0,1,1.28.72,5.17,5.17,0,0,1,1.12,1.12,5.58,5.58,0,0,1,.8,1.58A6.74,6.74,0,0,1,301.34,150.3ZM297.57,161a3.65,3.65,0,0,0-.3-1.34,3.93,3.93,0,0,0-.29-.52,2.28,2.28,0,0,0-.41-.48,2.61,2.61,0,0,0-.58-.37,2.75,2.75,0,0,0-.75-.24c0,1.06-.06,2.1-.08,3.14s0,2.09,0,3.14a3.52,3.52,0,0,0,.8-.4,3.75,3.75,0,0,0,.6-.49,3,3,0,0,0,.43-.55,4.41,4.41,0,0,0,.3-.56A4,4,0,0,0,297.57,161Zm.85-10v-.26a5.43,5.43,0,0,0-.07-.71,6.72,6.72,0,0,0-.23-.94,3.16,3.16,0,0,0-1.29-1.76,2.8,2.8,0,0,0-1.26-.41c-.06,1.65-.12,3.31-.17,4.95s-.1,3.3-.13,5a3.23,3.23,0,0,0,1-.56,4.1,4.1,0,0,0,.75-.81,4.92,4.92,0,0,0,.55-.94,10.48,10.48,0,0,0,.39-1A10.85,10.85,0,0,0,298.42,151Z"/><rect class="cls-62" x="294.07" y="141.03" width="2.43" height="3.97"/><rect class="cls-63" x="294.07" y="165.13" width="2.43" height="4.45"/><path class="cls-57" d="M299.85,150.14a10.13,10.13,0,0,1-.2,1.93A9.1,9.1,0,0,1,299,154a7.16,7.16,0,0,1-1.1,1.68,5.27,5.27,0,0,1-1.58,1.26,4,4,0,0,1,1.41,1,4.61,4.61,0,0,1,.79,1.22,4.43,4.43,0,0,1,.35,1.19,7,7,0,0,1,.07.91,5.22,5.22,0,0,1-.33,2,4.7,4.7,0,0,1-.87,1.39,4.21,4.21,0,0,1-1.18.9,6.65,6.65,0,0,1-1.3.52,7.48,7.48,0,0,1-1.2.24c-.37,0-.66.05-.89.05a8.4,8.4,0,0,1-.85-.08,7.37,7.37,0,0,1-.81-.17,2.69,2.69,0,0,1-.77-.34c.06-1.91.09-3.81.09-5.71q0-3.87-.18-7.65t-.5-7.62a11.51,11.51,0,0,1,1.38-.33c.45-.08.87-.14,1.24-.18s.84-.07,1.23-.08a5.73,5.73,0,0,1,1.08.12,5.35,5.35,0,0,1,1.26.39,6.51,6.51,0,0,1,1.27.72,5.12,5.12,0,0,1,1.12,1.11,5.64,5.64,0,0,1,.8,1.59A6.65,6.65,0,0,1,299.85,150.14Zm-3.76,10.66a3.61,3.61,0,0,0-.3-1.34,5.54,5.54,0,0,0-.29-.52,2.32,2.32,0,0,0-.41-.48,2.64,2.64,0,0,0-.58-.38,3.38,3.38,0,0,0-.76-.23c0,1.05-.05,2.1-.07,3.14s0,2.09,0,3.14a3.74,3.74,0,0,0,.8-.4,3.79,3.79,0,0,0,.6-.5,3.15,3.15,0,0,0,.43-.55,5.89,5.89,0,0,0,.29-.55A4.11,4.11,0,0,0,296.09,160.8Zm.84-10v-.27a4.3,4.3,0,0,0-.07-.71,6.93,6.93,0,0,0-.22-.94,3.6,3.6,0,0,0-.48-1,3,3,0,0,0-.82-.79,2.65,2.65,0,0,0-1.26-.42c-.06,1.66-.11,3.31-.17,5s-.1,3.3-.13,4.95a3.09,3.09,0,0,0,1-.55,4.48,4.48,0,0,0,.76-.81,5.59,5.59,0,0,0,.55-.95,10.31,10.31,0,0,0,.39-1A10.85,10.85,0,0,0,296.93,150.82Z"/><rect class="cls-57" x="292.58" y="140.87" width="2.43" height="3.97"/><rect class="cls-57" x="292.58" y="164.96" width="2.43" height="4.45"/><path class="cls-64" d="M282,160.2l24.4-19.33a38.13,38.13,0,0,1,2.29,10.23l-25.79,15.17S282.08,162.1,282,160.2Z"/><path class="cls-65" d="M306.36,140.87l4.75-.4a35.35,35.35,0,0,1,2.36,10.16l-4.82.47S307.88,144.3,306.36,140.87Z"/><path class="cls-66" d="M305.15,174.14l4.42.33s-2.6,5-5.51,6.45l-4.21-.16A14.83,14.83,0,0,0,305.15,174.14Z"/><path class="cls-67" d="M300.63,132a29.27,29.27,0,0,1,6.05,1.44,12.35,12.35,0,0,0-2.1-1.84,17.58,17.58,0,0,0-9.24-1.67A10.54,10.54,0,0,1,300.63,132Z"/><path class="cls-2" d="M308.43,191.89a13.94,13.94,0,0,1,6.79-1.77S310.53,192.27,308.43,191.89Z"/></g></g></g></svg>