<svg xmlns="http://www.w3.org/2000/svg" xmlns:xlink="http://www.w3.org/1999/xlink" viewBox="0 0 202.07 178.57"><defs><style>.cls-1{isolation:isolate;}.cls-2{fill:#e5f6ff;}.cls-3{fill:url(#Áåçûìÿííûé_ãðàäèåíò_17);}.cls-4{fill:url(#Áåçûìÿííûé_ãðàäèåíò_264);}.cls-5{fill:url(#Áåçûìÿííûé_ãðàäèåíò_46);}.cls-6{fill:url(#Áåçûìÿííûé_ãðàäèåíò_36);}.cls-28,.cls-31,.cls-34,.cls-44,.cls-50,.cls-64,.cls-7{opacity:0.3;}.cls-28,.cls-31,.cls-34,.cls-39,.cls-44,.cls-47,.cls-50,.cls-66,.cls-7,.cls-8{mix-blend-mode:multiply;}.cls-7{fill:url(#Áåçûìÿííûé_ãðàäèåíò_153);}.cls-20,.cls-21,.cls-22,.cls-39,.cls-47,.cls-66,.cls-8{opacity:0.5;}.cls-8{fill:url(#Áåçûìÿííûé_ãðàäèåíò_416);}.cls-9{fill:url(#Áåçûìÿííûé_ãðàäèåíò_73);}.cls-10{fill:#dfe3fb;}.cls-11{fill:url(#Áåçûìÿííûé_ãðàäèåíò_132);}.cls-12{fill:url(#Áåçûìÿííûé_ãðàäèåíò_264-2);}.cls-13{fill:url(#Áåçûìÿííûé_ãðàäèåíò_28);}.cls-14{fill:url(#Áåçûìÿííûé_ãðàäèåíò_17-2);}.cls-15{fill:url(#Áåçûìÿííûé_ãðàäèåíò_28-2);}.cls-16{fill:url(#Áåçûìÿííûé_ãðàäèåíò_8);}.cls-17{fill:url(#Áåçûìÿííûé_ãðàäèåíò_65);}.cls-18{fill:url(#Áåçûìÿííûé_ãðàäèåíò_17-3);}.cls-19{fill:url(#Áåçûìÿííûé_ãðàäèåíò_17-4);}.cls-20,.cls-21,.cls-22,.cls-23,.cls-24,.cls-40,.cls-41,.cls-64,.cls-65,.cls-67{mix-blend-mode:screen;}.cls-20{fill:url(#Áåçûìÿííûé_ãðàäèåíò_54);}.cls-21{fill:url(#Áåçûìÿííûé_ãðàäèåíò_54-2);}.cls-22{fill:url(#Áåçûìÿííûé_ãðàäèåíò_54-3);}.cls-23,.cls-24,.cls-40,.cls-41,.cls-65,.cls-67{opacity:0.72;}.cls-23{fill:url(#Áåçûìÿííûé_ãðàäèåíò_94);}.cls-24{fill:url(#Áåçûìÿííûé_ãðàäèåíò_134);}.cls-25{fill:#2f95cd;}.cls-26{fill:url(#Áåçûìÿííûé_ãðàäèåíò_129);}.cls-27{fill:url(#Áåçûìÿííûé_ãðàäèåíò_28-3);}.cls-28{fill:url(#Áåçûìÿííûé_ãðàäèåíò_153-2);}.cls-29{fill:url(#Áåçûìÿííûé_ãðàäèåíò_46-2);}.cls-30{fill:url(#Áåçûìÿííûé_ãðàäèåíò_36-2);}.cls-31{fill:url(#Áåçûìÿííûé_ãðàäèåíò_153-3);}.cls-32{fill:#fff;}.cls-33{fill:url(#Áåçûìÿííûé_ãðàäèåíò_46-3);}.cls-34{fill:url(#Áåçûìÿííûé_ãðàäèåíò_153-4);}.cls-35{fill:url(#Áåçûìÿííûé_ãðàäèåíò_28-4);}.cls-36{fill:url(#Áåçûìÿííûé_ãðàäèåíò_91);}.cls-37{fill:url(#Áåçûìÿííûé_ãðàäèåíò_36-3);}.cls-38{fill:#6340a2;}.cls-39{fill:url(#Áåçûìÿííûé_ãðàäèåíò_416-2);}.cls-40{fill:url(#Áåçûìÿííûé_ãðàäèåíò_134-2);}.cls-41{fill:url(#Áåçûìÿííûé_ãðàäèåíò_94-2);}.cls-42{fill:url(#Áåçûìÿííûé_ãðàäèåíò_46-4);}.cls-43{fill:url(#Áåçûìÿííûé_ãðàäèåíò_28-5);}.cls-44{fill:url(#Áåçûìÿííûé_ãðàäèåíò_153-5);}.cls-45{fill:url(#Áåçûìÿííûé_ãðàäèåíò_46-5);}.cls-46{fill:url(#Áåçûìÿííûé_ãðàäèåíò_28-6);}.cls-47{fill:url(#Áåçûìÿííûé_ãðàäèåíò_416-3);}.cls-48{fill:url(#Áåçûìÿííûé_ãðàäèåíò_46-6);}.cls-49{fill:url(#Áåçûìÿííûé_ãðàäèåíò_46-7);}.cls-50{fill:url(#Áåçûìÿííûé_ãðàäèåíò_153-6);}.cls-51{fill:url(#Áåçûìÿííûé_ãðàäèåíò_28-7);}.cls-52{fill:url(#Áåçûìÿííûé_ãðàäèåíò_29);}.cls-53{fill:url(#Áåçûìÿííûé_ãðàäèåíò_28-8);}.cls-54{fill:url(#Áåçûìÿííûé_ãðàäèåíò_46-8);}.cls-55{fill:url(#Áåçûìÿííûé_ãðàäèåíò_28-9);}.cls-56{fill:url(#Áåçûìÿííûé_ãðàäèåíò_8-2);}.cls-57{fill:#ff7ae8;}.cls-58{fill:url(#Áåçûìÿííûé_ãðàäèåíò_65-2);}.cls-59{fill:url(#Áåçûìÿííûé_ãðàäèåíò_8-3);}.cls-60{fill:url(#Áåçûìÿííûé_ãðàäèåíò_33);}.cls-61{fill:url(#Áåçûìÿííûé_ãðàäèåíò_8-4);}.cls-62{fill:url(#Áåçûìÿííûé_ãðàäèåíò_8-5);}.cls-63{fill:url(#Áåçûìÿííûé_ãðàäèåíò_8-6);}.cls-64{fill:url(#Áåçûìÿííûé_ãðàäèåíò_27);}.cls-65{fill:url(#Áåçûìÿííûé_ãðàäèåíò_27-2);}.cls-66{fill:#c44fe5;}.cls-67{fill:url(#Áåçûìÿííûé_ãðàäèåíò_27-3);}</style><linearGradient id="Áåçûìÿííûé_ãðàäèåíò_17" x1="93.82" y1="239.47" x2="93.82" y2="213.83" gradientTransform="translate(21.08 -217.21) rotate(10.91)" gradientUnits="userSpaceOnUse"><stop offset="0" stop-color="#45ffcd"/><stop offset="1" stop-color="#22e0ff"/></linearGradient><linearGradient id="Áåçûìÿííûé_ãðàäèåíò_264" x1="101.02" y1="228.68" x2="101.02" y2="206.79" gradientTransform="translate(21.08 -217.21) rotate(10.91)" gradientUnits="userSpaceOnUse"><stop offset="0" stop-color="#b9acf4"/><stop offset="1" stop-color="#e1d1f5"/></linearGradient><linearGradient id="Áåçûìÿííûé_ãðàäèåíò_46" x1="122.97" y1="286.79" x2="133.32" y2="204.42" gradientTransform="translate(21.08 -217.21) rotate(10.91)" gradientUnits="userSpaceOnUse"><stop offset="0" stop-color="#cbc1f7"/><stop offset="1" stop-color="#e8dcf7"/></linearGradient><linearGradient id="Áåçûìÿííûé_ãðàäèåíò_36" x1="97.93" y1="276.56" x2="165.54" y2="276.56" gradientTransform="translate(21.08 -217.21) rotate(10.91)" gradientUnits="userSpaceOnUse"><stop offset="0" stop-color="#8879ea"/><stop offset="1" stop-color="#9e8cef"/></linearGradient><linearGradient id="Áåçûìÿííûé_ãðàäèåíò_153" x1="127.39" y1="284.96" x2="127.39" y2="231.18" gradientTransform="translate(21.08 -217.21) rotate(10.91)" gradientUnits="userSpaceOnUse"><stop offset="0" stop-color="#9d68c2"/><stop offset="1" stop-color="#ccedff"/></linearGradient><linearGradient id="Áåçûìÿííûé_ãðàäèåíò_416" x1="131.73" y1="283.81" x2="131.73" y2="268.17" gradientTransform="translate(21.08 -217.21) rotate(10.91)" gradientUnits="userSpaceOnUse"><stop offset="0" stop-color="#8da4e5"/><stop offset="1" stop-color="#755cbb"/></linearGradient><linearGradient id="Áåçûìÿííûé_ãðàäèåíò_73" x1="110.56" y1="190.45" x2="111.84" y2="180.27" gradientTransform="translate(-1.63 -115.15) rotate(3.28)" gradientUnits="userSpaceOnUse"><stop offset="0" stop-color="#5e36cc"/><stop offset="1" stop-color="#6c4a96"/></linearGradient><linearGradient id="Áåçûìÿííûé_ãðàäèåíò_132" x1="114.95" y1="269.1" x2="114.95" y2="206.74" gradientTransform="translate(21.08 -217.21) rotate(10.91)" gradientUnits="userSpaceOnUse"><stop offset="0" stop-color="#0665bd"/><stop offset="1" stop-color="#1a1f77"/></linearGradient><linearGradient id="Áåçûìÿííûé_ãðàäèåíò_264-2" x1="130.43" y1="35.64" x2="130.43" y2="-6.57" gradientTransform="translate(2.16 13.87) rotate(-0.29)" xlink:href="#Áåçûìÿííûé_ãðàäèåíò_264"/><linearGradient id="Áåçûìÿííûé_ãðàäèåíò_28" x1="133.67" y1="34.04" x2="133.67" y2="-6.37" gradientTransform="translate(2.16 13.87) rotate(-0.29)" gradientUnits="userSpaceOnUse"><stop offset="0" stop-color="#be9dea"/><stop offset="1" stop-color="#9e8cef"/></linearGradient><linearGradient id="Áåçûìÿííûé_ãðàäèåíò_17-2" x1="136.72" y1="35.04" x2="136.72" y2="-4.57" gradientTransform="translate(2.16 13.87) rotate(-0.29)" xlink:href="#Áåçûìÿííûé_ãðàäèåíò_17"/><linearGradient id="Áåçûìÿííûé_ãðàäèåíò_28-2" x1="70.37" y1="281.52" x2="73.27" y2="258.46" gradientTransform="translate(21.08 -217.21) rotate(10.91)" xlink:href="#Áåçûìÿííûé_ãðàäèåíò_28"/><linearGradient id="Áåçûìÿííûé_ãðàäèåíò_8" x1="95.52" y1="285.33" x2="95.52" y2="274.8" gradientTransform="translate(31.73 -227.14) rotate(16.36)" gradientUnits="userSpaceOnUse"><stop offset="0" stop-color="#dd1a8f"/><stop offset="1" stop-color="#fe117e"/></linearGradient><linearGradient id="Áåçûìÿííûé_ãðàäèåíò_65" x1="56.07" y1="187.88" x2="56.07" y2="183.07" gradientTransform="matrix(1, 0.05, -0.05, 1, -2, -121.76)" gradientUnits="userSpaceOnUse"><stop offset="0" stop-color="#d93de3"/><stop offset="1" stop-color="#ff6dba"/></linearGradient><linearGradient id="Áåçûìÿííûé_ãðàäèåíò_17-3" x1="128.54" y1="236.9" x2="128.54" y2="231.18" xlink:href="#Áåçûìÿííûé_ãðàäèåíò_17"/><linearGradient id="Áåçûìÿííûé_ãðàäèåíò_17-4" x1="92.15" y1="243.52" x2="92.15" y2="238.21" xlink:href="#Áåçûìÿííûé_ãðàäèåíò_17"/><linearGradient id="Áåçûìÿííûé_ãðàäèåíò_54" x1="89.49" y1="220.6" x2="143.07" y2="220.6" gradientTransform="translate(21.08 -217.21) rotate(10.91)" gradientUnits="userSpaceOnUse"><stop offset="0"/><stop offset="1" stop-color="#6a9bff"/></linearGradient><linearGradient id="Áåçûìÿííûé_ãðàäèåíò_54-2" x1="92.79" y1="263.88" x2="132.06" y2="263.88" xlink:href="#Áåçûìÿííûé_ãðàäèåíò_54"/><linearGradient id="Áåçûìÿííûé_ãðàäèåíò_54-3" x1="83.93" y1="263.88" x2="83.93" y2="238.29" xlink:href="#Áåçûìÿííûé_ãðàäèåíò_54"/><linearGradient id="Áåçûìÿííûé_ãðàäèåíò_94" x1="135.96" y1="33.75" x2="135.96" y2="22.18" gradientTransform="translate(2.16 13.87) rotate(-0.29)" gradientUnits="userSpaceOnUse"><stop offset="0" stop-color="#d4e2ff"/><stop offset="1"/></linearGradient><linearGradient id="Áåçûìÿííûé_ãðàäèåíò_134" x1="126.34" y1="2.68" x2="149.01" y2="2.68" gradientTransform="translate(2.16 13.87) rotate(-0.29)" gradientUnits="userSpaceOnUse"><stop offset="0"/><stop offset="1" stop-color="#d4e2ff"/></linearGradient><linearGradient id="Áåçûìÿííûé_ãðàäèåíò_129" x1="57.16" y1="128.11" x2="62.66" y2="84.36" gradientUnits="userSpaceOnUse"><stop offset="0" stop-color="#cbc1f7"/><stop offset="1" stop-color="#d4bef1"/></linearGradient><linearGradient id="Áåçûìÿííûé_ãðàäèåíò_28-3" x1="45.84" y1="126.43" x2="44.6" y2="114.23" gradientTransform="matrix(1, 0, 0, 1, 0, 0)" xlink:href="#Áåçûìÿííûé_ãðàäèåíò_28"/><linearGradient id="Áåçûìÿííûé_ãðàäèåíò_153-2" x1="60.23" y1="126.56" x2="60.23" y2="86.32" gradientTransform="matrix(1, 0, 0, 1, 0, 0)" xlink:href="#Áåçûìÿííûé_ãðàäèåíò_153"/><linearGradient id="Áåçûìÿííûé_ãðàäèåíò_46-2" x1="85.34" y1="18.67" x2="89.85" y2="-17.22" gradientTransform="translate(-3.79 172.93) rotate(-8.66)" xlink:href="#Áåçûìÿííûé_ãðàäèåíò_46"/><linearGradient id="Áåçûìÿííûé_ãðàäèåíò_36-2" x1="78.57" y1="-10.45" x2="99.98" y2="-10.45" gradientTransform="translate(-3.79 172.93) rotate(-8.66)" xlink:href="#Áåçûìÿííûé_ãðàäèåíò_36"/><linearGradient id="Áåçûìÿííûé_ãðàäèåíò_153-3" x1="88.96" y1="17.59" x2="88.96" y2="-18.51" gradientTransform="translate(-3.79 172.93) rotate(-8.66)" xlink:href="#Áåçûìÿííûé_ãðàäèåíò_153"/><linearGradient id="Áåçûìÿííûé_ãðàäèåíò_46-3" x1="122.43" y1="-144.27" x2="132.23" y2="-222.24" gradientTransform="translate(25.29 330.23) rotate(-16.58)" xlink:href="#Áåçûìÿííûé_ãðàäèåíò_46"/><linearGradient id="Áåçûìÿííûé_ãðàäèåíò_153-4" x1="145.67" y1="-156.92" x2="145.67" y2="-197.26" gradientTransform="translate(25.29 330.23) rotate(-16.58)" xlink:href="#Áåçûìÿííûé_ãðàäèåíò_153"/><linearGradient id="Áåçûìÿííûé_ãðàäèåíò_28-4" x1="100" y1="-169.09" x2="138.24" y2="-169.09" gradientTransform="translate(25.29 330.23) rotate(-16.58)" xlink:href="#Áåçûìÿííûé_ãðàäèåíò_28"/><radialGradient id="Áåçûìÿííûé_ãðàäèåíò_91" cx="119.89" cy="-151.62" r="28.9" gradientTransform="translate(25.29 330.23) rotate(-16.58)" xlink:href="#Áåçûìÿííûé_ãðàäèåíò_17"/><linearGradient id="Áåçûìÿííûé_ãðàäèåíò_36-3" x1="141.33" y1="-197.4" x2="151.18" y2="-197.4" gradientTransform="translate(25.29 330.23) rotate(-16.58)" xlink:href="#Áåçûìÿííûé_ãðàäèåíò_36"/><linearGradient id="Áåçûìÿííûé_ãðàäèåíò_416-2" x1="128.68" y1="-209.97" x2="128.68" y2="-222.35" gradientTransform="translate(25.29 330.23) rotate(-16.58)" xlink:href="#Áåçûìÿííûé_ãðàäèåíò_416"/><linearGradient id="Áåçûìÿííûé_ãðàäèåíò_134-2" x1="101.99" y1="-182.52" x2="133.72" y2="-182.52" gradientTransform="translate(25.29 330.23) rotate(-16.58)" xlink:href="#Áåçûìÿííûé_ãðàäèåíò_134"/><linearGradient id="Áåçûìÿííûé_ãðàäèåíò_94-2" x1="119.43" y1="-145.85" x2="119.43" y2="-149.52" gradientTransform="translate(25.29 330.23) rotate(-16.58)" xlink:href="#Áåçûìÿííûé_ãðàäèåíò_94"/><linearGradient id="Áåçûìÿííûé_ãðàäèåíò_46-4" x1="264.88" y1="-399.49" x2="272.27" y2="-458.32" gradientTransform="matrix(0.86, -0.51, 0.51, 0.86, 121.33, 616.8)" xlink:href="#Áåçûìÿííûé_ãðàäèåíò_46"/><linearGradient id="Áåçûìÿííûé_ãðàäèåíò_28-5" x1="277.05" y1="-399.14" x2="277.05" y2="-410.46" gradientTransform="matrix(0.86, -0.51, 0.51, 0.86, 121.33, 616.8)" xlink:href="#Áåçûìÿííûé_ãðàäèåíò_28"/><linearGradient id="Áåçûìÿííûé_ãðàäèåíò_153-5" x1="270.07" y1="-398.16" x2="270.07" y2="-460.39" gradientTransform="matrix(0.86, -0.51, 0.51, 0.86, 121.33, 616.8)" xlink:href="#Áåçûìÿííûé_ãðàäèåíò_153"/><linearGradient id="Áåçûìÿííûé_ãðàäèåíò_46-5" x1="1382.75" y1="-428.56" x2="1386.81" y2="-460.9" gradientTransform="matrix(-0.8, 0.6, 0.6, 0.8, 1539.55, -330.73)" xlink:href="#Áåçûìÿííûé_ãðàäèåíò_46"/><linearGradient id="Áåçûìÿííûé_ãðàäèåíò_28-6" x1="1389.89" y1="-428.11" x2="1389.89" y2="-457.4" gradientTransform="matrix(-0.8, 0.6, 0.6, 0.8, 1539.55, -330.73)" xlink:href="#Áåçûìÿííûé_ãðàäèåíò_28"/><linearGradient id="Áåçûìÿííûé_ãðàäèåíò_416-3" x1="1390.48" y1="-437.17" x2="1390.48" y2="-448.5" gradientTransform="matrix(-0.8, 0.6, 0.6, 0.8, 1539.55, -330.73)" xlink:href="#Áåçûìÿííûé_ãðàäèåíò_416"/><linearGradient id="Áåçûìÿííûé_ãðàäèåíò_46-6" x1="1391.24" y1="-437.71" x2="1393.65" y2="-456.84" gradientTransform="matrix(-0.8, 0.6, 0.6, 0.8, 1539.55, -330.73)" xlink:href="#Áåçûìÿííûé_ãðàäèåíò_46"/><linearGradient id="Áåçûìÿííûé_ãðàäèåíò_46-7" x1="166.48" y1="-170.49" x2="172.27" y2="-216.58" gradientTransform="translate(25.81 392.13) rotate(-19.16)" xlink:href="#Áåçûìÿííûé_ãðàäèåíò_46"/><linearGradient id="Áåçûìÿííûé_ãðàäèåíò_153-6" x1="174.43" y1="-169.15" x2="174.43" y2="-215.77" gradientTransform="translate(25.81 392.13) rotate(-19.16)" xlink:href="#Áåçûìÿííûé_ãðàäèåíò_153"/><linearGradient id="Áåçûìÿííûé_ãðàäèåíò_28-7" x1="35.92" y1="131.75" x2="26.68" y2="119.29" gradientTransform="matrix(1, 0, 0, 1, 0, 0)" xlink:href="#Áåçûìÿííûé_ãðàäèåíò_28"/><linearGradient id="Áåçûìÿííûé_ãðàäèåíò_29" x1="30.42" y1="132.09" x2="32.75" y2="113.54" gradientUnits="userSpaceOnUse"><stop offset="0" stop-color="#e8dcf7"/><stop offset="1" stop-color="#cbc1f7"/></linearGradient><linearGradient id="Áåçûìÿííûé_ãðàäèåíò_28-8" x1="34.85" y1="119.63" x2="31.97" y2="115.75" gradientTransform="matrix(1, 0, 0, 1, 0, 0)" xlink:href="#Áåçûìÿííûé_ãðàäèåíò_28"/><linearGradient id="Áåçûìÿííûé_ãðàäèåíò_46-8" x1="29.58" y1="119.68" x2="30.39" y2="113.21" gradientTransform="matrix(1, 0, 0, 1, 0, 0)" xlink:href="#Áåçûìÿííûé_ãðàäèåíò_46"/><linearGradient id="Áåçûìÿííûé_ãðàäèåíò_28-9" x1="28.79" y1="117.55" x2="41.33" y2="126.76" gradientTransform="matrix(1, 0, 0, 1, 0, 0)" xlink:href="#Áåçûìÿííûé_ãðàäèåíò_28"/><linearGradient id="Áåçûìÿííûé_ãðàäèåíò_8-2" x1="21.4" y1="119.63" x2="21.4" y2="66.76" gradientTransform="matrix(1, 0, 0, 1, 0, 0)" xlink:href="#Áåçûìÿííûé_ãðàäèåíò_8"/><linearGradient id="Áåçûìÿííûé_ãðàäèåíò_65-2" x1="8.08" y1="118.33" x2="18.15" y2="67.75" gradientTransform="matrix(1, 0, 0, 1, 0, 0)" xlink:href="#Áåçûìÿííûé_ãðàäèåíò_65"/><linearGradient id="Áåçûìÿííûé_ãðàäèåíò_8-3" x1="9.25" y1="112.95" x2="17.18" y2="73.13" gradientTransform="matrix(1, 0, 0, 1, 0, 0)" xlink:href="#Áåçûìÿííûé_ãðàäèåíò_8"/><linearGradient id="Áåçûìÿííûé_ãðàäèåíò_33" x1="9.91" y1="113.08" x2="17.75" y2="73.69" gradientUnits="userSpaceOnUse"><stop offset="0" stop-color="#d93de3"/><stop offset="1" stop-color="#e652ad"/></linearGradient><linearGradient id="Áåçûìÿííûé_ãðàäèåíò_8-4" x1="9.86" y1="92.31" x2="19.54" y2="92.31" gradientTransform="matrix(1, 0, 0, 1, 0, 0)" xlink:href="#Áåçûìÿííûé_ãðàäèåíò_8"/><linearGradient id="Áåçûìÿííûé_ãðàäèåíò_8-5" x1="12.27" y1="79.97" x2="14.7" y2="79.97" gradientTransform="matrix(1, 0, 0, 1, 0, 0)" xlink:href="#Áåçûìÿííûé_ãðàäèåíò_8"/><linearGradient id="Áåçûìÿííûé_ãðàäèåíò_8-6" x1="12.27" y1="104.31" x2="14.7" y2="104.31" gradientTransform="matrix(1, 0, 0, 1, 0, 0)" xlink:href="#Áåçûìÿííûé_ãðàäèåíò_8"/><linearGradient id="Áåçûìÿííûé_ãðàäèåíò_27" x1="0.17" y1="90.52" x2="26.85" y2="90.52" gradientUnits="userSpaceOnUse"><stop offset="0"/><stop offset="1" stop-color="#ff955c"/></linearGradient><linearGradient id="Áåçûìÿííûé_ãðàäèåíò_27-2" x1="24.56" y1="82.74" x2="31.68" y2="82.74" xlink:href="#Áåçûìÿííûé_ãðàäèåíò_27"/><linearGradient id="Áåçûìÿííûé_ãðàäèåíò_27-3" x1="13.55" y1="68.61" x2="24.88" y2="68.61" xlink:href="#Áåçûìÿííûé_ãðàäèåíò_27"/></defs><g class="cls-1"><g id="Layer_2" data-name="Layer 2"><g id="chatbot"><path class="cls-2" d="M50.31,161.4c8.33,13.77,78.11,10,104.22-2.74s28.73-122.52,16.3-138.9S79.56-1.84,47.24,15.93,39.22,143.08,50.31,161.4Z"/><path class="cls-2" d="M171.51,12.55c.07-6.72,15.19-14.42,23.9-12.14s10.06,32.29-3.2,33.29S171.43,20.93,171.51,12.55Z"/><path class="cls-2" d="M33.94,154.52c-1.16-5.05,2.73-10.41,6.3-9.48s7.59,17.72,2.17,18.13S34.71,157.85,33.94,154.52Z"/><path class="cls-3" d="M73,10.56s-8.21,5.89-11.53,19S77.25,26.5,77.25,26.5Z"/><path class="cls-4" d="M65.78,24.29S72,8.51,77.78,6s14.3,2.42,14.3,2.42Z"/><path class="cls-5" d="M136.88,77.73c-15,15.92-72.76,7.78-80.83-3.17a26.88,26.88,0,0,1-5-15.22h0C50.2,35.34,74.64,4.63,104.91,7,125.42,8.61,139,28.45,142.59,47.52,144.84,59.44,143.19,71.06,136.88,77.73Z"/><path class="cls-6" d="M124,84.3a108.46,108.46,0,0,1-26.17,2.18c-13.62-.79-23.34-2.89-28.7-5.4h0c-3.52-1.65-5.16-3.47-4.81-5.23.22-1.06,3-1.85,7.2-2.39,12.49-1.53,38.11-.73,51.78,2.15,1.17.25,2.27.51,3.24.79l.61.18.12,0c2.34.73,4,1.54,4.69,2.45a1.84,1.84,0,0,1,.35.7C132.71,81.57,129.17,83.13,124,84.3Z"/><path class="cls-7" d="M136.88,77.73c-15,15.92-72.76,7.78-80.83-3.17a26.88,26.88,0,0,1-5-15.22h0s3.45,7.8,15.14,9.91,46.12,2.36,53.38-2.39,5.94-28.49,5.94-28.49l17.08,9.16C144.84,59.44,143.19,71.06,136.88,77.73Z"/><path class="cls-8" d="M124,84.3c-5.73-2.89-22.49-10.49-36.4-8.19-17.06,2.8-18.47,5-18.47,5h0c-3.52-1.65-5.16-3.47-4.81-5.23.22-1.06,3-1.85,7.2-2.39,12.49-1.53,38.11-.73,51.78,2.15,1.42.34,2.71.66,3.85,1l.12,0c2.34.73,4,1.54,4.69,2.45a1.84,1.84,0,0,1,.35.7C132.71,81.57,129.17,83.13,124,84.3Z"/><path class="cls-9" d="M126.54,76.4c-3.4,2.89-19,4.66-27.78,4.15-15.77-.93-25.2-4-27.25-7.09C85.07,71.8,114.14,72.88,126.54,76.4Z"/><path class="cls-10" d="M50.84,60.41c2,7.33,51.91,12.84,65.43,1S120.18,7,93.5,9.32C68.07,11.5,47.13,47.13,50.84,60.41Z"/><path class="cls-11" d="M51.05,59.33c2.05,7.33,51.91,12.83,65.43,1S120.39,6,93.71,8.24C68.28,10.41,47.34,46.05,51.05,59.33Z"/><path class="cls-12" d="M120.54,15.51S118,40.17,133.21,48.8c0,0,7.46.77,11.78-3.78,0,0-6.72,6.38-13.88-.2S125.57,20,131,14.05s13.2-4.43,13.2-4.43L141,6.82S129.5,4.53,120.54,15.51Z"/><path class="cls-13" d="M141,6.82s-8.46-.74-14.32,9.11c-6.22,10.45-1.57,28.45,6.07,31.15S148,20.58,148,20.58L143.47,9A5.21,5.21,0,0,0,141,6.82Z"/><path class="cls-14" d="M152.07,31.6c-1.06,5.64-3.33,10.25-6.38,13.18h0l-.85.76h0a11.09,11.09,0,0,1-8.57,2.6c-10.31-1.26-11.77-16.16-10.6-24.62C127,13.77,135.31,7.86,142,8.69,149.87,9.67,154.15,20.57,152.07,31.6Z"/><path class="cls-15" d="M50.77,52.61a37.84,37.84,0,0,0-14,7.22c-6.81,5.58-8.6,12.39-.21,11.78l3.89-2.28s-5,.7-4.35-4.4S50.59,53.55,50.59,53.55Z"/><path class="cls-16" d="M35.09,67.43C32.57,70,37.49,72.32,41.61,73c4.62.75,13,.25,12.7-4.46S41,61.44,35.09,67.43Z"/><path class="cls-17" d="M35.38,67.94c-.18.76,16.41,1.85,17-1.06S36.8,62.08,35.38,67.94Z"/><path class="cls-18" d="M93.94,38.05c-.35.49,6.55-4,17.55.31C112.57,38.78,101,28.39,93.94,38.05Z"/><path class="cls-19" d="M59.27,38.1c-.36.48,3.27-3,12.93-.67C73.33,37.7,65.61,29.48,59.27,38.1Z"/><path class="cls-20" d="M64.92,28.72c1.14,1.71,10.58-3.2,21-2.15s21.77,11.25,30.29,10c6.76-1-2.16-25.32-19.38-27.49S63.8,27,64.92,28.72Z"/><path class="cls-21" d="M61.85,61.53A72.89,72.89,0,0,1,86,60.15c13.36,1.49,15.52,2.91,15.27,4.16s-10,3.84-22.23,2.54S61.85,61.53,61.85,61.53Z"/><path class="cls-22" d="M51.43,57.38S50.06,48,58.56,34.64c0,0,1.82-2.09,2.66-1.34S53.55,43.71,51.43,57.38Z"/><path class="cls-23" d="M127.37,35.43s1.14,9.14,7.86,11.08,12.17-2.94,13.86-9.81c0,0-2.08,5.93-10.84,4.46S127.37,35.43,127.37,35.43Z"/><path class="cls-24" d="M128.52,18.14c.09,1.7,12.4-1.9,16.33-1.4s5.61,5.31,6.24,5.19S150,10.58,142.7,9.78,128.46,17,128.52,18.14Z"/><path class="cls-25" d="M70.61,47.52s12.25.43,19.2-1.32c0,0-1.65,11.49-9.6,11.49S70.61,47.52,70.61,47.52Z"/><path class="cls-26" d="M70.12,115.34S49.56,127,44.72,126.54,42,115.08,42,115.08c.64-.76,1.36-1.55,2.13-2.35h0C51.9,104.56,65.1,94.15,72.68,89.2h0c3.19-2.09,5.39-3.21,5.76-2.79C81.26,89.53,70.12,115.34,70.12,115.34Z"/><path class="cls-27" d="M42,115.07s2.69-2.26,6,.78-.1,10.33-3.33,10.69S39.55,119.8,42,115.07Z"/><path class="cls-28" d="M70.12,115.34S49.56,127,44.72,126.54,42,115.08,42,115.08c.64-.76,1.36-1.55,2.13-2.35h0s5,3,14.3,1.55S72.68,89.2,72.68,89.2h0c3.19-2.09,5.39-3.21,5.76-2.79C81.26,89.53,70.12,115.34,70.12,115.34Z"/><path class="cls-29" d="M94.14,153.4c.31,4.37-4.43,19.24-9.22,23.82h0a3.93,3.93,0,0,1-2.74,1.34c-4-.16-8.64-18.34-10.4-28.71-.68-4-.92-6.84-.52-7C74.61,141.38,93.76,148.19,94.14,153.4Z"/><path class="cls-30" d="M94.35,154.81s-4.34,3.29-12.3.71c-6.22-2-11.52-10.86-10.8-12.68S96,147.7,94.35,154.81Z"/><path class="cls-31" d="M94.14,153.4c.31,4.37-4.43,19.24-9.22,23.82,3.32-5.25,2-14.71-1.21-18.63-2.43-3-8.92-7-11.94-8.73-.68-4-.92-6.84-.52-7C74.61,141.38,93.76,148.19,94.14,153.4Z"/><path class="cls-32" d="M79,160c-1.22-.09-.41,3.21-.18,3.39s.8-.93.85-1.83S79.45,160,79,160Z"/><path class="cls-33" d="M122.67,126.84c1.21,16.38-5.63,25.59-21.46,30.08-15.52,4.39-30-9.54-30.88-30.69-.55-13.5-.17-25.74,4.35-34.63h0v0A23.81,23.81,0,0,1,86.91,80.11c4.57-2,9.25-.6,13.67,2.79C112.07,91.73,121.74,114.21,122.67,126.84Z"/><path class="cls-34" d="M105.79,100.43a195.68,195.68,0,0,1,7.59,19.5c2.83,9.49.17,20.29.17,20.29l9.25-10.61a35.22,35.22,0,0,0-2.09-13c-2.45-6.18-3.83-8.93-3.83-8.93Z"/><path class="cls-35" d="M70.13,128.92s.13-12.69,11.24-16c13.31-4,26.67,8.07,28.84,18.29s1.91,20.48-10.55,24.62C99.66,155.84,76,162.32,70.13,128.92Z"/><path class="cls-36" d="M70.68,130.3s.13-12.69,11.24-16c13.31-4,26.67,8.08,28.84,18.29s1.91,20.48-10.55,24.62C100.21,157.22,76.5,163.7,70.68,130.3Z"/><path class="cls-37" d="M115.75,111.37a2.7,2.7,0,0,1-2.2-.77c-3.9-2.88-10-12.73-11.76-18.69-.68-2.32-.69-4,.34-4.56,1.69-.84,7.08,4.08,11.35,12C116,104,118.22,110.64,115.75,111.37Z"/><path class="cls-38" d="M113.55,110.6c-3.9-2.88-10-12.73-11.76-18.69,2.41,1.74,5.83,5.73,8.73,11.11A33.43,33.43,0,0,1,113.55,110.6Z"/><path class="cls-39" d="M100.41,82.81S86,93.79,79.51,94.94c-6.26,1.13-5.07-3.18-5-3.43h0v0A23.85,23.85,0,0,1,86.74,80C91.31,78.05,96,79.42,100.41,82.81Z"/><path class="cls-40" d="M71.78,128.82c2.63,2.69,7.65-3.26,15.71-4.68s13.48,1.45,15.39-.35-8.61-11.35-20.73-8.25C72.48,118,70.89,127.9,71.78,128.82Z"/><path class="cls-41" d="M89.13,155.21a14.23,14.23,0,0,0,9.72.92c5.47-1.42,6.49-4.57,6.49-4.57a11.66,11.66,0,0,0-6.3,1.55A17.62,17.62,0,0,1,89.13,155.21Z"/><path class="cls-32" d="M92.79,95.45c-.94.3.15,10,1,10.07s1.29-2.17,1.14-5.41S93.69,95.15,92.79,95.45Z"/><path class="cls-42" d="M159.12,124.26c1.47,6.16-4.29,10.31-6.82,10.12-2.2-.17-9.48-2.65-19.05-9.43h0c-1.4-1-2.86-2.09-4.36-3.28-11.7-9.28-28.28-29.33-23-31.28h0C121.05,84.73,157.65,118.12,159.12,124.26Z"/><path class="cls-43" d="M147.39,132.93s-2.76-4.83.47-9,10.66-1,10.66-1a6.32,6.32,0,0,1-2.45,8.84C150.4,135.27,147.39,132.93,147.39,132.93Z"/><path class="cls-44" d="M159.12,124.26c1.47,6.16-4.29,10.31-6.82,10.12-2.2-.17-9.48-2.65-19.05-9.43.87.54,7.21,4.36,9.9,2.76,2.89-1.73,3.69-13.1-12-26.62C116,88,106.43,90.22,105.85,90.38,121.05,84.73,157.65,118.12,159.12,124.26Z"/><path class="cls-45" d="M150.11,125.87c2-2.07,6.95-2.4,9.42-1.24s10.61,7.38,15,19.05c0,0-.76,6.88-5.41,8.23-3.53,1-9.67-7.64-14.34-13.62S146.79,129.29,150.11,125.87Z"/><path class="cls-46" d="M169.89,151.84s-11.11-22.05-21.75-20.35c0,0,2,3.46,8.45,10.39S167.62,152.52,169.89,151.84Z"/><path class="cls-47" d="M162.41,140.58s.16,4.35-.84,5.82a4.25,4.25,0,0,1-2.42,1.76l-1.59-12.57A28.77,28.77,0,0,1,162.41,140.58Z"/><path class="cls-48" d="M157.56,135.59s-5.11-4.6-9.36-3.5c0,0-.82,5.25,8.58,16.32,0,0,3.36,1,4.09-3A36.52,36.52,0,0,0,157.56,135.59Z"/><path class="cls-32" d="M154.27,135.07c1.11-.82,3.07,5.34,2.4,5.66S153.35,135.76,154.27,135.07Z"/><path class="cls-32" d="M119.9,108.15c-1.35,2.45,2.95,4.29,4.09,3.91S120.82,106.47,119.9,108.15Z"/><path class="cls-32" d="M124.88,113c-.41.31,1.34,1.86,1.76,2.12.81.5,2.44.72,2.52.42S125.35,112.62,124.88,113Z"/><path class="cls-32" d="M51.51,107.33c.22.7,5.06-1.48,5.08-3.58S51.2,106.31,51.51,107.33Z"/><path class="cls-49" d="M138.53,173.68c-.85.86-2.46.83-4.51.2a37.46,37.46,0,0,1-7.84-3.89h-.05c-8-4.93-16.71-12.57-17.18-14.8-1.61-7.71,6.19-17.61,11.17-22.5,1.94-1.92,3.46-3.06,3.8-3C125.17,129.79,143,169.26,138.53,173.68Z"/><path class="cls-50" d="M138.53,173.68c-.85.86-2.46.83-4.51.2L126.18,170c.74.32,9.16,3.69,6.31-8.46-3-12.7-12.66-27.89-12.66-27.89l.29-1c1.94-1.92,3.46-3.06,3.8-3C125.17,129.79,143,169.26,138.53,173.68Z"/><path class="cls-32" d="M115.15,152.59c-1.87,1.16,2.79,5.09,3.32,5.12s.18-2.19-.7-3.56C117,152.93,115.81,152.18,115.15,152.59Z"/><path class="cls-32" d="M119.14,158.13c-.27.44,1.17,1.67,1.39,1.22a1.36,1.36,0,0,0-.45-1.39A.81.81,0,0,0,119.14,158.13Z"/><path class="cls-32" d="M27.52,117c.06.83,5.93-1.89,5.93-2.87S27.43,115.62,27.52,117Z"/><path class="cls-51" d="M15.92,127.27A10,10,0,0,0,17,131.06s2.85,2,8.44,1.74,17.07-6.08,18.66-7.14,2.44-4.33,2.44-4.33Z"/><path class="cls-52" d="M46.12,115.37c-2.82-1.14-10.09.42-14.54,2s-11.72,6.66-15.66,9.85c0,0,.08,3,5.9,3.74s21.47-5.88,24.09-8.75S46.12,115.37,46.12,115.37Z"/><path class="cls-53" d="M26,120.26s9.88-1.33,14.92-5.11C40.88,115.15,32.39,114.79,26,120.26Z"/><path class="cls-54" d="M39.39,115.37A29.76,29.76,0,0,1,27.48,119s-6.2.08-6.54-.64-.54-3.44,1-4.13S34.32,112.3,39.39,115.37Z"/><path class="cls-55" d="M26.9,120.12a43.56,43.56,0,0,1,15.38,4.59l.94-.52S37.44,120.12,26.9,120.12Z"/><path class="cls-56" d="M13.55,66.88a16,16,0,0,1,9.05,1.56s10.06,6,9.19,25.48c-.88,19.7-9.53,24-9.53,24s-6.61,2.78-10,1.32S13.55,66.88,13.55,66.88Z"/><ellipse class="cls-57" cx="13.55" cy="93.04" rx="13.55" ry="26.16"/><ellipse class="cls-58" cx="13.11" cy="93.04" rx="13.11" ry="26.16"/><path class="cls-59" d="M23.71,93c0,11.37-4.7,20.59-10.49,20.59a5.53,5.53,0,0,1-2.29-.5c-4.7-2-8.21-10.26-8.21-20.09,0-11.36,4.7-20.59,10.5-20.59a6,6,0,0,1,3.5,1.18C20.8,76.47,23.71,84.09,23.71,93Z"/><path class="cls-60" d="M23.71,93c0,11.37-4.7,20.59-10.49,20.59a5.53,5.53,0,0,1-2.29-.5c-4.06-2.84-7-10.45-7-19.4,0-11.37,4.7-20.59,10.49-20.59a5.62,5.62,0,0,1,2.27.49C20.8,76.47,23.71,84.09,23.71,93Z"/><path class="cls-61" d="M19.54,87.26a9.94,9.94,0,0,1-.2,1.92,9.19,9.19,0,0,1-.63,1.92,7.16,7.16,0,0,1-1.1,1.68A5.21,5.21,0,0,1,16,94a4.07,4.07,0,0,1,1.41,1,4.68,4.68,0,0,1,1.14,2.41,7,7,0,0,1,.07.91,5,5,0,0,1-.34,2,4.49,4.49,0,0,1-.86,1.39,4.41,4.41,0,0,1-1.18.9,6.65,6.65,0,0,1-1.3.52,6.46,6.46,0,0,1-1.2.23,8.58,8.58,0,0,1-.89.06,8.4,8.4,0,0,1-.85-.08c-.25,0-.52-.1-.81-.17a2.88,2.88,0,0,1-.78-.34c.07-1.91.1-3.81.1-5.71q0-3.87-.18-7.65t-.5-7.62a11.51,11.51,0,0,1,1.38-.33c.45-.08.87-.14,1.24-.18s.84-.07,1.23-.08a6.58,6.58,0,0,1,1.08.11,5.91,5.91,0,0,1,1.26.4,6.51,6.51,0,0,1,1.27.72,5.12,5.12,0,0,1,1.12,1.11,5.72,5.72,0,0,1,.8,1.58A6.76,6.76,0,0,1,19.54,87.26ZM15.78,97.92a3.61,3.61,0,0,0-.3-1.34c-.09-.17-.18-.34-.29-.52a2.09,2.09,0,0,0-.41-.48,2.64,2.64,0,0,0-.58-.38,3.38,3.38,0,0,0-.76-.23c0,1,0,2.1-.07,3.14s0,2.08,0,3.14a3.89,3.89,0,0,0,.79-.4,3.47,3.47,0,0,0,.61-.5,3.15,3.15,0,0,0,.43-.55,5.89,5.89,0,0,0,.29-.55A4.11,4.11,0,0,0,15.78,97.92Zm.84-10v-.26a4.2,4.2,0,0,0-.07-.71,6.93,6.93,0,0,0-.22-.94,3.6,3.6,0,0,0-.48-1,3,3,0,0,0-.82-.79,2.65,2.65,0,0,0-1.26-.42c-.06,1.66-.11,3.31-.17,5s-.1,3.3-.13,5a3.09,3.09,0,0,0,1-.55,4.84,4.84,0,0,0,.76-.81,5.59,5.59,0,0,0,.55-1c.15-.34.28-.67.39-1A10.83,10.83,0,0,0,16.62,87.93Z"/><rect class="cls-62" x="12.27" y="77.99" width="2.43" height="3.97"/><rect class="cls-63" x="12.27" y="102.08" width="2.43" height="4.45"/><path class="cls-57" d="M18.06,87.09A9.26,9.26,0,0,1,17.85,89a8.08,8.08,0,0,1-.63,1.91,7.29,7.29,0,0,1-1.09,1.69,5.36,5.36,0,0,1-1.58,1.25,4.07,4.07,0,0,1,1.41,1,4.82,4.82,0,0,1,.79,1.21,4.6,4.6,0,0,1,.34,1.19,7.47,7.47,0,0,1,.08.91,5.07,5.07,0,0,1-.34,2,4.52,4.52,0,0,1-.87,1.38,4.29,4.29,0,0,1-1.18.91,7.57,7.57,0,0,1-1.29.52,6.46,6.46,0,0,1-1.2.23,8.27,8.27,0,0,1-.89,0,8.54,8.54,0,0,1-.86-.07c-.25,0-.52-.1-.8-.17a2.75,2.75,0,0,1-.78-.34c.06-1.91.09-3.81.09-5.71q0-3.87-.17-7.65t-.51-7.62a9.92,9.92,0,0,1,1.38-.34c.46-.08.87-.14,1.24-.18s.85-.06,1.24-.07a6.58,6.58,0,0,1,1.08.11,6.61,6.61,0,0,1,1.25.39,7.22,7.22,0,0,1,1.28.73A4.91,4.91,0,0,1,17,83.41a5.86,5.86,0,0,1,.8,1.58A6.74,6.74,0,0,1,18.06,87.09ZM14.29,97.76a3.56,3.56,0,0,0-.3-1.34,3.81,3.81,0,0,0-.29-.52,2.1,2.1,0,0,0-.41-.49,2.61,2.61,0,0,0-.58-.37A2.75,2.75,0,0,0,12,94.8c0,1.06-.06,2.11-.08,3.14s0,2.09,0,3.14a4,4,0,0,0,.8-.39,4.41,4.41,0,0,0,.6-.5,3,3,0,0,0,.43-.55,6.19,6.19,0,0,0,.3-.56A4,4,0,0,0,14.29,97.76Zm.85-10v-.26a5.6,5.6,0,0,0-.07-.71,6.72,6.72,0,0,0-.23-.94,3.35,3.35,0,0,0-.47-1,3.26,3.26,0,0,0-.82-.79,2.8,2.8,0,0,0-1.26-.41c-.06,1.66-.12,3.31-.17,5s-.1,3.3-.13,5A3.23,3.23,0,0,0,13,93a4.72,4.72,0,0,0,.75-.8,5.33,5.33,0,0,0,.55-.95c.15-.34.28-.67.39-1A11.6,11.6,0,0,0,15.14,87.77Z"/><rect class="cls-57" x="10.79" y="77.82" width="2.43" height="3.97"/><rect class="cls-57" x="10.79" y="101.92" width="2.43" height="4.45"/><path class="cls-64" d="M.17,97.16,24.56,77.82a38.13,38.13,0,0,1,2.29,10.23L1.06,103.22S.29,99.06.17,97.16Z"/><path class="cls-65" d="M24.56,77.82l4.76-.4a35.36,35.36,0,0,1,2.36,10.17l-4.83.46S26.08,81.25,24.56,77.82Z"/><path class="cls-66" d="M23.35,111.1l4.42.32s-2.6,5-5.51,6.46l-4.2-.16A14.85,14.85,0,0,0,23.35,111.1Z"/><path class="cls-67" d="M18.84,69a28.81,28.81,0,0,1,6,1.45,12.35,12.35,0,0,0-2.1-1.84,17.49,17.49,0,0,0-9.23-1.68A10.65,10.65,0,0,1,18.84,69Z"/><path class="cls-32" d="M26.64,128.85a14,14,0,0,1,6.78-1.78S28.74,129.23,26.64,128.85Z"/></g></g></g></svg>